<svg width="668" height="668" viewBox="0 0 668 668" fill="none" xmlns="http://www.w3.org/2000/svg">
<g clip-path="url(#clip0_23469_8)">
<path d="M668 0H0V668H668V0Z" fill="#5237E6"/>
<path d="M333.996 156.485C258.505 156.485 197.307 217.683 197.307 293.174V503.681C197.307 508.205 200.976 511.879 205.51 511.879H243.785C248.314 511.879 251.987 508.205 251.987 503.681V402.533C274.832 419.693 303.229 429.866 334 429.866C409.486 429.866 470.693 368.668 470.693 293.178C470.688 217.683 409.486 156.485 333.996 156.485ZM333.996 375.191C288.701 375.191 251.983 338.472 251.983 293.174C251.983 247.879 288.701 211.16 333.996 211.16C379.29 211.16 416.012 247.879 416.012 293.174C416.012 338.468 379.29 375.191 333.996 375.191Z" fill="white"/>
</g>
<defs>
<clipPath id="clip0_23469_8">
<rect width="668" height="668" fill="white"/>
</clipPath>
</defs>
</svg>
